<svg width="60" height="60" viewBox="0 0 60 60" fill="none" xmlns="http://www.w3.org/2000/svg">
<path d="M53.3333 56.6666H56.6666M43.3333 56.6666H36.6666V46.6666M46.6666 46.6666H56.6666V36.6666H53.3333M36.6666 36.6666H43.3333M3.33325 46.6658C3.33325 43.5595 3.33325 42.0064 3.84072 40.7812C4.51735 39.1477 5.81431 37.8507 7.44784 37.1741C8.67298 36.6666 10.2261 36.6666 13.3324 36.6666C16.4387 36.6666 17.9935 36.6666 19.2187 37.1741C20.8522 37.8507 22.1488 39.1477 22.8254 40.7812C23.3329 42.0064 23.3329 43.5604 23.3329 46.6666C23.3329 49.7729 23.3329 51.3261 22.8254 52.5512C22.1488 54.1847 20.8522 55.4822 19.2187 56.1588C17.9935 56.6663 16.4387 56.6663 13.3324 56.6663C10.2261 56.6663 8.67297 56.6663 7.44784 56.1588C5.81431 55.4822 4.51735 54.1856 3.84072 52.5521C3.33325 51.3269 3.33325 49.7721 3.33325 46.6658ZM36.6666 13.3325C36.6666 10.2262 36.6666 8.67304 37.1741 7.4479C37.8507 5.81438 39.1476 4.51741 40.7812 3.84078C42.0063 3.33331 43.5594 3.33331 46.6657 3.33331C49.772 3.33331 51.3269 3.33331 52.552 3.84078C54.1855 4.51741 55.4821 5.81438 56.1588 7.4479C56.6662 8.67304 56.6662 10.227 56.6662 13.3333C56.6662 16.4396 56.6662 17.9927 56.1588 19.2179C55.4821 20.8514 54.1855 22.1489 52.552 22.8255C51.3269 23.333 49.772 23.333 46.6657 23.333C43.5595 23.333 42.0063 23.333 40.7812 22.8255C39.1476 22.1489 37.8507 20.8522 37.1741 19.2187C36.6666 17.9936 36.6666 16.4387 36.6666 13.3325ZM3.33325 13.3325C3.33325 10.2262 3.33325 8.67304 3.84072 7.4479C4.51735 5.81438 5.81431 4.51741 7.44784 3.84078C8.67298 3.33331 10.2261 3.33331 13.3324 3.33331C16.4387 3.33331 17.9935 3.33331 19.2187 3.84078C20.8522 4.51741 22.1488 5.81438 22.8254 7.4479C23.3329 8.67304 23.3329 10.227 23.3329 13.3333C23.3329 16.4396 23.3329 17.9927 22.8254 19.2179C22.1488 20.8514 20.8522 22.1489 19.2187 22.8255C17.9935 23.333 16.4387 23.333 13.3324 23.333C10.2261 23.333 8.67297 23.333 7.44784 22.8255C5.81431 22.1489 4.51735 20.8522 3.84072 19.2187C3.33325 17.9936 3.33325 16.4387 3.33325 13.3325Z" stroke="#707070" stroke-width="6.66667" stroke-linecap="round" stroke-linejoin="round"/>
</svg>
